<?xml version="1.0" standalone="no"?>
<!DOCTYPE svg PUBLIC "-//W3C//DTD SVG 20010904//EN"
 "http://www.w3.org/TR/2001/REC-SVG-20010904/DTD/svg10.dtd">
<svg version="1.0" xmlns="http://www.w3.org/2000/svg"
 width="49.000000pt" height="50.000000pt" viewBox="0 0 49.000000 50.000000"
 preserveAspectRatio="xMidYMid meet">
<metadata>
Created by potrace 1.10, written by Peter Selinger 2001-2011
</metadata>
<g transform="translate(0.000000,50.000000) scale(0.100000,-0.100000)"
fill="#000000" stroke="none">
<path d="M273 484 c-9 -24 10 -49 37 -49 27 0 46 25 37 49 -4 10 -18 16 -37
16 -19 0 -33 -6 -37 -16z"/>
<path d="M210 425 c-15 -19 -4 -52 21 -60 38 -12 65 35 37 63 -16 16 -43 15
-58 -3z"/>
<path d="M10 355 c-14 -17 -5 -51 15 -59 33 -12 61 19 50 55 -8 23 -47 25 -65
4z"/>
<path d="M140 351 c-8 -17 -7 -24 10 -41 11 -11 24 -20 29 -20 16 0 33 29 29
52 -4 32 -52 38 -68 9z"/>
<path d="M282 358 c-18 -18 -14 -46 7 -58 36 -19 68 11 56 51 -7 22 -45 25
-63 7z"/>
<path d="M86 297 c-11 -8 -17 -23 -14 -38 2 -19 9 -24 32 -24 40 0 56 27 32
54 -22 25 -26 25 -50 8z"/>
<path d="M356 297 c-26 -19 -18 -61 12 -65 44 -7 67 32 36 62 -19 19 -25 20
-48 3z"/>
<path d="M146 218 c-21 -30 -4 -60 32 -56 30 3 42 39 22 64 -17 20 -36 17 -54
-8z"/>
<path d="M280 225 c-26 -32 13 -81 48 -59 24 16 27 45 6 61 -23 17 -39 16 -54
-2z"/>
<path d="M420 226 c-6 -8 -10 -25 -8 -38 2 -18 9 -23 33 -23 24 0 31 5 33 23
6 42 -33 68 -58 38z"/>
<path d="M210 151 c-25 -47 36 -83 64 -38 8 12 8 22 0 35 -16 25 -51 27 -64 3z"/>
<path d="M364 159 c-10 -17 13 -36 27 -22 12 12 4 33 -11 33 -5 0 -12 -5 -16
-11z"/>
<path d="M142 84 c-20 -37 12 -73 52 -58 12 5 16 16 14 38 -2 25 -8 32 -30 34
-17 2 -30 -3 -36 -14z"/>
</g>
</svg>
